<svg width="16" height="17" viewBox="0 0 16 17" fill="none" xmlns="http://www.w3.org/2000/svg">
<path d="M12.6667 5.83329L10.0001 8.49996H12.0001C12.0001 10.7066 10.2067 12.5 8.00008 12.5C7.32675 12.5 6.68675 12.3333 6.13341 12.0333L5.16008 13.0066C5.98008 13.5266 6.95341 13.8333 8.00008 13.8333C10.9467 13.8333 13.3334 11.4466 13.3334 8.49996H15.3334L12.6667 5.83329ZM4.00008 8.49996C4.00008 6.29329 5.79341 4.49996 8.00008 4.49996C8.67341 4.49996 9.31341 4.66663 9.86675 4.96663L10.8401 3.99329C10.0201 3.47329 9.04675 3.16663 8.00008 3.16663C5.05341 3.16663 2.66675 5.55329 2.66675 8.49996H0.666748L3.33341 11.1666L6.00008 8.49996H4.00008Z" fill="#C0C0C0"/>
</svg>
